<?xml version="1.0" encoding="UTF-8"?>
<svg xmlns="http://www.w3.org/2000/svg" width="69.1mm" height="52.9mm" version="1.1" viewBox="0 0 196 150">
  <!-- Generator: Adobe Illustrator 28.7.8, SVG Export Plug-In . SVG Version: 1.2.0 Build 200)  -->
  <g>
    <g id="_レイヤー_1" data-name="レイヤー_1">
      <path d="M155.8,14.4V2.8s-28.7,5.8-57.8,5.8S40.1,2.8,40.1,2.8v11.6s28.7,5.1,57.8,5.1c29.1,0,57.8-5.1,57.8-5.1ZM40.1,21.6h56.4v11.6h-56.4v-11.6ZM99.4,21.6h56.4v11.6h-56.4v-11.6ZM40.1,37.5h56.4v11.6h-56.4v-11.6ZM99.4,37.5h56.4v11.6h-56.4v-11.6ZM40.1,53.4h56.4v11.6h-56.4v-11.6ZM99.4,53.4h56.4v11.6h-56.4v-11.6ZM40.1,69.3h115.7v11.6H40.1v-11.6ZM40.1,88.1v11.6s28.7-5.8,57.8-5.8,57.8,5.8,57.8,5.8v-11.6s-28.7-5.1-57.8-5.1c-29.1,0-57.8,5.1-57.8,5.1ZM24.8,128l-3.2-1c-7.4,7.3-16.5,9.2-16.5,9.2l1.9,3.2c2.9-.9,5.3-2,7.4-3.1,1.6,1.4,2.7,3.2,3.4,4.3-7.3,3.1-14.2,3-14.2,3l1.3,3.6c21.4-1.3,27-14.4,27-14.4v-2.9h-8.7c1.1-1.1,1.6-1.8,1.6-1.8ZM28.3,132.9c-2.1,2.6-4.5,4.5-7,6-1.2-1.7-3-3.3-4-4.2,1-.6,1.8-1.2,2.6-1.8h8.4ZM26.2,120.7v-2.7h-10.7c.5-.6.9-1.2,1.3-1.8l-3.8-.4s-3.9,4.8-11.5,6.7l2.2,2.9s2.1-.7,4.7-2.1c1.3,1.2,2.7,2.9,3.6,4.1-5.8,2.5-11.1,3-11.1,3l2.1,3.2c16.9-3,23.1-13,23.1-13ZM15.5,125.8c-1.3-1.4-3.2-3.1-4.3-4,.5-.4,1.1-.7,1.6-1.2h9.1c-1.9,2.1-4.1,3.8-6.4,5.1ZM83.5,127.5h11.2v-3h-11.2v-2.1h12.8v-2.9h-6.8c.6-1.4,1.1-2.9,1.1-2.9l-3.8-.6c-.2,1.3-.7,2.6-1.1,3.5h-6.8c-.6-1.6-1.7-3.5-1.7-3.5l-3.7.8c.7,1,1.1,1.9,1.4,2.7h-7.2v2.9h12.4v2.1h-11.1v3h11.1v2.1h-13.2v3.1h13.2c0,.6-.1,1.5-.4,2.4h-12.4v3.2h10.7c-1.8,2.3-5.1,4.5-11.1,5.5l2,3.5s9.2-1.7,13-8.9c1.2,2.2,4.7,7.1,13.4,8.8l1.7-3.5s-7.1-.2-11.5-5.3h10.8v-3.2h-13.1c.2-.8.3-1.6.3-2.4h13.7v-3.1h-13.6v-2.1ZM130.1,117.3h-8v3.4h8v-3.4ZM106.7,140.2l2.8,2.5c1.7-3.6,1.9-13.4,1.9-13.4h-2.8c0,6.4-1.8,10.9-1.8,10.9ZM121.9,141.2c0-6.1-1.5-12.1-1.5-12.1l-2.9.4c1.3,6.8,1.1,11.8,1.1,11.8l3.3-.2ZM107.5,117.1l-3.1-1.1c-1.3,3.1-5,5.5-5,5.5l1.8,3.2c5.1-3.5,6.3-7.6,6.3-7.6ZM107.8,124.6l-2.9-1.2c-2.2,6.4-5.5,8.3-5.5,8.3l1.2,4.1c.8-.6,1.6-1.3,2.3-2.1v13.3c-.1,0,3.1,0,3.1,0v-17.9c1.1-2.4,1.7-4.5,1.7-4.5ZM121.5,120.5c-.3-1.4-2.3-4.3-2.3-4.3l-2.5,1.3c.9,1.3,2.2,4.4,2.2,4.4l2.6-1.5ZM121.4,129.4h3.8v12.9s0,1.1-1,1.1h-3.9s.7,3.5.7,3.5h4.3s3.3.2,3.4-2.6v-15h1.9v-3.4h-9.1v3.4ZM121,122.5h-5v-6.2h-3.5v6.2h-4.2v3.3h4.2v21.2h3.5v-21.2h5s0-3.3,0-3.3ZM150.1,127.5h12.9v-3.5h-13.4v-7.9h-3.8v7.9h-13.2v3.5h12.9c-.8,4-3.7,11.7-13.6,15.9l2.7,3.7s9.5-4.6,13.4-14.7c3.7,11.2,13.3,14.6,13.3,14.6l2.3-3.7c-9.9-3.5-12.8-12.3-13.5-15.9ZM38.7,129l1.6,2.2s2.1-1.7,3.4-4c0,1.3,0,2.9,0,4.1h2.6s0-1.9,0-4.1c.8,1.3,1.8,2.3,1.8,2.3l1.6-1.8c-1.1-.9-1.8-1.7-2.3-2.2h2.7v-2.2h-3.8v-1.3h-2.6v1.3h-4.5v2.2h3.1c-.6.9-1.7,2.3-3.6,3.5ZM49.1,129.2l1.8,2s2.8-1.8,4.4-3.8c0,1.2,0,2.5,0,3.6h2.4s0-1.8,0-3.9c1.8,2.4,4.5,4.6,4.5,4.6l1.5-2.5c-1.9-1-3.6-2.7-4.6-3.7h4.3v-2.3h-5.7v-1.3h-2.4v1.3h-3.8v2.3h2.5c-1,1.1-2.6,2.6-4.9,3.7ZM50.6,116h-3.6v1.9h-12.3s0,17.2,0,17.2c0,6.4-2.4,8.8-2.4,8.8l2.8,3.1c3.3-5.1,3-11.6,3-11.6v-14.5h25.5v-3h-13s0-1.9,0-1.9ZM52.2,138.8h9.5v-2.3h-9.5v-1.4c4.3-.3,8.5-1.1,8.5-1.1l-.9-2.6c-3.2,1.1-10.5,1.3-10.5,1.3h-9.6l.7,2.4c.6,0,6,0,8.6,0v1.3s-9.2,0-9.2,0v2.3h9.2v1.3s-10,0-10,0v2.5h10.1v.7s.2.9-.9.9h-4.2l1,2.9h5s2.4-.1,2.3-2.2v-2.3s11.4,0,11.4,0v-2.5h-11.4v-1.3ZM195,135.5h-13.3v-.2c5.1-1.9,8.2-5.3,8.2-5.3v-2.7h-19.7v3.2s14.5,0,14.5,0c-2.2,1.8-4,2.4-5.1,2.7l-1.5-.2v2.6c0,0-13.1,0-13.1,0v3.2h13.3v4.2c.1,0,0,.9-1,.9h-5.2s.9,3.2.9,3.2h6.1s2.9.4,2.9-3l-.2-5.3h13.1v-3.2ZM168.8,124.7h22.4v4.2h3.2v-7.4h0v-.2h-4.2c1.2-1.8,2.4-4.3,2.4-4.3l-3.5-1c-1,2.9-2.1,4.6-2.6,5.3h-3.9c-1-3.5-2.2-5.3-2.2-5.3l-3.4,1.3c.8,1.4,1.4,3,1.9,4h-5.1c-.8-2.5-2.5-5.2-2.5-5.2l-3.3,1.3c.8,1.1,1.6,2.8,2.1,4h-4.5v.2h0v7.4h3.2v-4.3h0Z"/>
    </g>
  </g>
</svg>