<?xml version="1.0" encoding="UTF-8"?>
<svg xmlns="http://www.w3.org/2000/svg" width="69.14mm" height="12.35mm" version="1.1" viewBox="0 0 195.99 35.01">
  <defs>
    <style>
      .cls-1 {
        fill: #231815;
      }
    </style>
  </defs>
  <!-- Generator: Adobe Illustrator 28.7.8, SVG Export Plug-In . SVG Version: 1.2.0 Build 200)  -->
  <g>
    <g id="_レイヤー_1" data-name="レイヤー_1">
      <path class="cls-1" d="M24.83,13.99l-3.17-1.03c-7.4,7.34-16.48,9.23-16.48,9.23l1.89,3.18c2.87-.92,5.33-2,7.44-3.12,1.57,1.44,2.74,3.19,3.38,4.28-7.26,3.12-14.23,2.97-14.23,2.97l1.28,3.6c21.38-1.32,27.04-14.37,27.04-14.37v-2.89h-8.72c1.08-1.12,1.57-1.85,1.57-1.85ZM28.27,18.85c-2.05,2.56-4.49,4.5-7.01,5.98-1.2-1.68-2.98-3.3-4-4.17.97-.62,1.84-1.23,2.61-1.81h8.41,0ZM26.19,6.72v-2.73h-10.65c.48-.57.92-1.16,1.29-1.79l-3.79-.36s-3.9,4.77-11.48,6.72l2.2,2.93s2.12-.71,4.73-2.09c1.33,1.21,2.74,2.94,3.62,4.1-5.81,2.55-11.11,3.04-11.11,3.04l2.07,3.22c16.86-3.02,23.13-13.03,23.13-13.03h0ZM15.49,11.78c-1.32-1.35-3.25-3.06-4.31-3.98.54-.36,1.07-.75,1.59-1.16h9.07c-1.86,2.13-4.08,3.81-6.35,5.14ZM83.5,13.48h11.21v-3.01h-11.21v-2.08h12.85v-2.95h-6.83c.64-1.39,1.05-2.88,1.05-2.88l-3.83-.57c-.18,1.26-.73,2.64-1.1,3.45h-6.82c-.57-1.62-1.66-3.54-1.66-3.54l-3.66.82c.67.97,1.11,1.94,1.4,2.72h-7.16v2.95h12.44v2.08h-11.12v3.01h11.12v2.08h-13.24v3.09h13.25c-.03.64-.13,1.49-.42,2.43h-12.35v3.17h10.69c-1.8,2.29-5.1,4.51-11.12,5.47l1.99,3.46s9.24-1.7,12.98-8.88c1.18,2.22,4.68,7.08,13.37,8.76l1.67-3.46s-7.08-.22-11.55-5.35h10.79v-3.17h-13.11c.17-.76.29-1.57.33-2.43h13.66v-3.09h-13.63v-2.08h0ZM130.11,3.29h-8.03v3.38h8.03v-3.38ZM106.67,26.23l2.77,2.52c1.74-3.65,1.87-13.44,1.87-13.44h-2.85c0,6.43-1.79,10.91-1.79,10.91h0ZM121.9,27.21c.06-6.05-1.46-12.05-1.46-12.05l-2.89.41c1.26,6.81,1.06,11.81,1.06,11.81l3.3-.16h-.01ZM107.52,3.06l-3.09-1.06c-1.26,3.07-4.97,5.5-4.97,5.5l1.75,3.18c5.13-3.46,6.31-7.61,6.31-7.61h0ZM107.81,10.59l-2.85-1.18c-2.22,6.37-5.5,8.31-5.5,8.31l1.22,4.11c.83-.61,1.58-1.34,2.26-2.11l-.15,13.27h3.29l-.08-17.95c1.23-2.44,1.8-4.45,1.8-4.45h0ZM121.45,6.48c-.35-1.35-2.28-4.32-2.28-4.32l-2.51,1.34c.87,1.28,2.2,4.44,2.2,4.44,0,0,2.59-1.46,2.59-1.46ZM121.35,15.38h3.76l.03,12.95s.04,1.13-1.01,1.13h-3.9l.69,3.53,4.3.02s3.32.19,3.35-2.67v-14.96h1.87v-3.39h-9.09v3.39ZM121.04,8.47h-5.02V2.29h-3.48v6.18h-4.16v3.31h4.17v21.2h3.45V11.78h5.03v-3.31h.01ZM150.07,13.44h12.89v-3.47h-13.38V2.08h-3.76v7.89h-13.22v3.47h12.89c-.82,4.01-3.66,11.7-13.59,15.86l2.68,3.75s9.5-4.62,13.4-14.72c3.68,11.16,13.28,14.64,13.28,14.64l2.32-3.66c-9.9-3.5-12.75-12.33-13.51-15.86h0ZM38.66,14.94l1.59,2.24s2.07-1.66,3.45-3.97c0,1.33-.02,2.93-.07,4.1h2.64s-.06-1.92-.07-4.12c.81,1.27,1.79,2.29,1.79,2.29l1.63-1.83c-1.11-.91-1.82-1.68-2.25-2.22h2.72v-2.22h-3.84v-1.25h-2.63v1.25h-4.53v2.22h3.15c-.59.93-1.7,2.3-3.57,3.53v-.02ZM49.05,15.19l1.83,1.99s2.76-1.78,4.44-3.81c.02,1.18,0,2.48-.06,3.59h2.4s-.1-1.83-.09-3.86c1.78,2.41,4.52,4.57,4.52,4.57l1.51-2.48c-1.9-1.01-3.61-2.68-4.58-3.73h4.33v-2.26h-5.7v-1.29h-2.42v1.29h-3.78v2.26h2.52c-.98,1.1-2.59,2.59-4.91,3.73h0ZM50.61,2h-3.56v1.94h-12.33v17.16c-.05,6.41-2.4,8.76-2.4,8.76l2.81,3.13c3.26-5.13,3.01-11.57,3.01-11.57V6.92h25.47v-2.97h-13s0-1.95,0-1.95ZM52.19,24.75h9.48v-2.34h-9.48v-1.4c4.29-.27,8.49-1.08,8.49-1.08l-.88-2.63c-3.21,1.1-10.5,1.34-10.5,1.34h-9.61l.65,2.44h8.55v1.32h-9.21v2.34h9.21v1.25h-10.05v2.54h10.05v.71s.23.92-.87.92h-4.19l1,2.87,5.04-.04s2.37-.09,2.32-2.18v-2.28h11.39v-2.54h-11.4v-1.25h0ZM194.98,21.44h-13.25v-.23c5.07-1.92,8.19-5.26,8.19-5.26v-2.75h-19.67l.02,3.2,14.47-.08c-2.24,1.78-4.01,2.39-5.08,2.68l-1.48-.15.08,2.6h-13.2v3.23h13.3l.13,4.18s-.08.93-1.09.93l-5.21.02.89,3.22h6.05s2.88.41,2.87-2.99l-.18-5.35h13.14v-3.23l.02-.02ZM168.75,10.69h22.36v4.25h3.21v-7.36h0v-.16h-4.23c1.18-1.8,2.35-4.29,2.35-4.29l-3.54-.98c-1.02,2.94-2.08,4.59-2.58,5.27h-3.87c-1.02-3.46-2.19-5.31-2.19-5.31l-3.38,1.26c.82,1.45,1.45,2.95,1.86,4.05h-5.1c-.78-2.47-2.51-5.23-2.51-5.23l-3.26,1.26c.79,1.08,1.6,2.8,2.12,3.96h-4.46v.16h0v7.36h3.21v-4.25h0Z"/>
    </g>
  </g>
</svg>