<?xml version="1.0" encoding="UTF-8"?>
<svg xmlns="http://www.w3.org/2000/svg" width="180mm" height="114mm" version="1.1" viewBox="0 0 510.2 323.1">
  <!-- Generator: Adobe Illustrator 28.7.8, SVG Export Plug-In . SVG Version: 1.2.0 Build 200)  -->
  <g>
    <g id="_レイヤー_1" data-name="レイヤー_1">
      <path d="M367.1,90s-55.6,9.8-112,9.8-112-9.8-112-9.8v-22.4s55.6,11.2,112,11.2,112-11.2,112-11.2v22.4ZM252.3,104.1h-109.2v22.4h109.2v-22.4ZM367.1,104.1h-109.2v22.4h109.2v-22.4h0ZM252.3,134.9h-109.2v22.4h109.2v-22.4ZM367.1,134.9h-109.2v22.4h109.2v-22.4h0ZM252.3,165.8h-109.2v22.4h109.2v-22.4ZM367.1,165.8h-109.2v22.4h109.2v-22.4h0ZM367.1,196.6h-224v22.4h224v-22.4ZM367.1,233.1s-55.6-9.8-112-9.8-112,9.8-112,9.8v22.4s55.6-11.2,112-11.2,112,11.2,112,11.2v-22.4Z"/>
    </g>
  </g>
</svg>